<svg width="19" height="21" viewBox="0 0 19 21" fill="none" xmlns="http://www.w3.org/2000/svg">
<path d="M17.774 10.2604C17.8655 10.0039 17.97 9.7523 18.0872 9.50648C18.2197 9.27068 18.2975 9.00817 18.3149 8.7383C18.3234 8.62106 18.3001 8.5037 18.2475 8.39857C18.1949 8.29344 18.1149 8.2044 18.016 8.14083C17.8212 8.00715 17.5962 7.92404 17.3612 7.89899C17.1024 7.87208 16.8486 7.80986 16.6068 7.71405C16.4217 7.6287 16.3363 7.4011 16.3363 7.04546C16.3283 6.88928 16.2947 6.73547 16.2366 6.59024C16.2135 6.50885 16.1621 6.43835 16.0917 6.39142C16.0212 6.34449 15.9364 6.32419 15.8523 6.33418C15.73 6.33946 15.6117 6.37888 15.5107 6.44798C15.4043 6.51443 15.3123 6.6015 15.2402 6.70404V6.31995C15.2538 6.18753 15.2538 6.05406 15.2402 5.92163C15.2451 5.85264 15.2319 5.78356 15.2019 5.7212C15.172 5.65884 15.1263 5.60535 15.0694 5.566C14.9513 5.47821 14.822 5.40645 14.685 5.35261L14.2722 5.19613C14.1441 5.19613 14.0729 5.0681 14.0587 4.96852L13.9733 4.3426C13.9733 4.14344 13.9733 3.93005 13.9733 3.73089C13.974 3.62985 13.9532 3.52981 13.9122 3.43744C13.8712 3.34507 13.811 3.26248 13.7356 3.19518C13.6602 3.12789 13.5713 3.07742 13.4748 3.04715C13.3783 3.01687 13.2765 3.00749 13.1761 3.01962C12.9723 3.0055 12.7678 3.0055 12.564 3.01962L11.9519 3.10497L11.3683 3.19032C11.1883 3.20498 11.0074 3.20498 10.8274 3.19032C10.3937 3.18597 9.96805 3.07351 9.58892 2.86313C9.20047 2.65809 8.83331 2.41507 8.49283 2.13763C7.73197 1.50234 6.88337 0.9801 5.97324 0.587044C5.0695 0.218428 4.10236 0.0299609 3.12625 0.0322471H2.45721L1.73123 0.131826C1.4906 0.173604 1.25287 0.23062 1.01948 0.302531C0.797662 0.365497 0.582986 0.451311 0.378906 0.558592V1.98115C0.831805 1.76877 1.31026 1.61577 1.8024 1.52593C2.30572 1.43958 2.81494 1.39202 3.32555 1.38368C3.99111 1.39097 4.65236 1.49153 5.28997 1.68241C5.67582 1.82976 6.04357 2.02067 6.38606 2.25143C6.74492 2.45571 7.08336 2.69389 7.39674 2.96271C7.8674 3.36025 8.37781 3.70825 8.91988 4.00118C9.46039 4.29934 10.0676 4.45594 10.685 4.4564H11.1975L11.7811 4.35682L12.1797 4.24302C12.3119 4.22434 12.4461 4.22434 12.5783 4.24302C12.6316 4.23453 12.6862 4.24063 12.7363 4.26066C12.7865 4.2807 12.8302 4.31393 12.863 4.35682C12.9172 4.45326 12.9511 4.55976 12.9626 4.66978L13.048 5.80783C13.0538 5.93482 13.1042 6.05571 13.1904 6.14924C13.2821 6.23363 13.3882 6.30106 13.5035 6.3484C13.6274 6.39335 13.7566 6.42204 13.8879 6.43376H14.2438C14.2742 6.4443 14.3011 6.46326 14.3213 6.48843C14.3414 6.51361 14.354 6.54397 14.3576 6.57601V6.73249C14.3663 6.81287 14.3663 6.89395 14.3576 6.97433V7.25884C14.3797 7.34812 14.4132 7.43419 14.4573 7.5149C14.4786 7.552 14.5099 7.58236 14.5477 7.60248C14.5854 7.62261 14.6281 7.6317 14.6708 7.6287C14.7747 7.63122 14.8759 7.59582 14.9555 7.52913C15.0409 7.47534 15.1393 7.44583 15.2402 7.44377C15.2714 7.44366 15.3021 7.45143 15.3295 7.46635C15.3568 7.48127 15.38 7.50287 15.3968 7.52913C15.4154 7.58936 15.4154 7.65382 15.3968 7.71405C15.4047 7.77545 15.4047 7.8376 15.3968 7.89899C15.3891 7.96515 15.3891 8.03198 15.3968 8.09815C15.3836 8.19859 15.3933 8.30073 15.4254 8.39684C15.4574 8.49295 15.5109 8.58052 15.5818 8.65294C15.7109 8.73864 15.8563 8.79676 16.0089 8.82365L16.4075 8.909C16.4627 8.91936 16.5122 8.9498 16.5464 8.99445C16.5806 9.0391 16.597 9.09481 16.5925 9.15084C16.6016 9.23595 16.6016 9.32179 16.5925 9.4069L16.4075 9.86212C16.4075 10.0328 16.2651 10.2178 16.1797 10.4027C16.0943 10.5876 16.0374 10.7441 15.9804 10.8721C15.582 11.9183 15.2632 12.993 15.0267 14.0871C14.7741 15.1788 14.6452 16.2954 14.6423 17.4159C14.6423 17.8996 14.6423 18.3832 14.7277 18.8385C14.7852 19.3231 14.8949 19.8 15.0551 20.261H16.3505C16.2107 19.8406 16.1152 19.4067 16.0658 18.9665C16.0658 18.5113 16.0658 18.0703 16.0658 17.5439C16.0549 16.2375 16.2225 14.9357 16.564 13.6746C16.9057 12.4512 17.3043 11.242 17.7598 10.0471" fill="#0A0082"/>
</svg>
