<?xml version="1.0" encoding="UTF-8" standalone="no"?>
<!DOCTYPE svg PUBLIC "-//W3C//DTD SVG 1.1//EN" "http://www.w3.org/Graphics/SVG/1.1/DTD/svg11.dtd">
<svg viewBox="0 0 18 92" version="1.1" xmlns="http://www.w3.org/2000/svg" xmlns:xlink="http://www.w3.org/1999/xlink" xml:space="preserve" xmlns:serif="http://www.serif.com/" style="fill-rule:evenodd;clip-rule:evenodd;stroke-linejoin:round;stroke-miterlimit:2;">
    <g id="Plan-de-travail1" serif:id="Plan de travail1" transform="matrix(0.945124,0,0,1.04793,-2.80593,-0.179346)">
        <rect x="2.969" y="0.171" width="18.432" height="87.015" style="fill:none;"/>
        <g transform="matrix(1.05806,0,0,0.954265,-0.217497,-1.0334)">
            <path d="M10.762,5.828L3.032,10.291L3.032,1.365L10.762,5.828Z" style="fill:rgb(10,0,130);fill-rule:nonzero;"/>
        </g>
        <g transform="matrix(1.05806,0,0,0.954265,-0.217497,-1.0334)">
            <path d="M20.332,23.497L12.602,27.96L12.602,19.034L20.332,23.497Z" style="fill:rgb(10,0,130);fill-rule:nonzero;"/>
        </g>
        <g transform="matrix(1.05806,0,0,0.954265,-0.217497,-1.0334)">
            <path d="M10.762,41.166L3.032,45.629L3.032,36.703L10.762,41.166Z" style="fill:rgb(10,0,130);fill-rule:nonzero;"/>
        </g>
        <g transform="matrix(1.05806,0,0,0.954265,-0.217497,-1.0334)">
            <path d="M20.332,58.834L12.602,63.297L12.602,54.371L20.332,58.834Z" style="fill:rgb(10,0,130);fill-rule:nonzero;"/>
        </g>
        <g transform="matrix(1.05806,0,0,0.954265,-0.217497,-1.0334)">
            <path d="M10.762,76.503L3.032,80.966L3.032,72.04L10.762,76.503Z" style="fill:rgb(10,0,130);fill-rule:nonzero;"/>
        </g>
    </g>
</svg>
