<svg width="13" height="13" viewBox="0 0 13 13" fill="none" xmlns="http://www.w3.org/2000/svg">
<path d="M11.94 6.71505C11.9025 6.62505 11.85 6.54255 11.775 6.46755L6.525 1.21755C6.45556 1.14811 6.37313 1.09303 6.28241 1.05546C6.19168 1.01788 6.09445 0.998535 5.99625 0.998535C5.89805 0.998535 5.80082 1.01788 5.71009 1.05546C5.61937 1.09303 5.53694 1.14811 5.4675 1.21755C5.39806 1.28699 5.34298 1.36942 5.30541 1.46014C5.26783 1.55087 5.24848 1.6481 5.24848 1.7463C5.24848 1.8445 5.26783 1.94173 5.30541 2.03246C5.34298 2.12318 5.39806 2.20561 5.4675 2.27505L9.435 6.24255H0.75C0.3375 6.24255 0 6.58005 0 6.99255C0 7.40505 0.3375 7.74255 0.75 7.74255H9.4425L5.475 11.7101C5.40556 11.7795 5.35048 11.8619 5.3129 11.9526C5.27533 12.0434 5.25598 12.1406 5.25598 12.2388C5.25598 12.337 5.27533 12.4342 5.3129 12.525C5.35048 12.6157 5.40556 12.6981 5.475 12.7676C5.54444 12.837 5.62687 12.8921 5.71759 12.9296C5.80832 12.9672 5.90555 12.9866 6.00375 12.9866C6.10195 12.9866 6.19918 12.9672 6.28991 12.9296C6.38063 12.8921 6.46306 12.837 6.5325 12.7676L11.7825 7.51755C11.8878 7.41292 11.9597 7.27938 11.9891 7.13385C12.0185 6.98832 12.004 6.83735 11.9475 6.70005L11.94 6.71505Z" fill="#33BBA7"/>
</svg>