<svg width="23" height="23" viewBox="0 0 23 23" fill="none" xmlns="http://www.w3.org/2000/svg">
<path d="M11.5081 22.4814C10.2081 22.4814 8.90811 22.2514 7.68811 21.8014C5.47811 20.9814 3.55811 19.4514 2.26811 17.4714C0.988112 15.4914 0.368112 13.1114 0.518112 10.7614C0.679292 8.39554 1.59795 6.14447 3.13811 4.34139C4.66811 2.55139 6.77811 1.28139 9.07811 0.761386C11.3781 0.241386 13.8281 0.481386 15.9781 1.44139C16.4781 1.66139 16.7081 2.26139 16.4881 2.76139C16.2581 3.26139 15.6681 3.49139 15.1681 3.27139C13.3933 2.48452 11.4128 2.28823 9.51811 2.71139C7.62442 3.13812 5.91956 4.16595 4.65811 5.64139C3.40811 7.10139 2.64811 8.97139 2.51811 10.8914C2.38811 12.8114 2.89811 14.7614 3.94811 16.3814C5.00388 18.0087 6.558 19.2506 8.37811 19.9214C10.1881 20.5914 12.1981 20.6614 14.0481 20.1114C15.8981 19.5614 17.5481 18.4114 18.7081 16.8714C19.8641 15.3153 20.4914 13.4299 20.4981 11.4914V10.5714C20.4981 10.0214 20.9481 9.57139 21.4981 9.57139C22.0481 9.57139 22.4981 10.0214 22.4981 10.5714V11.4914C22.4981 13.8514 21.7181 16.1814 20.3081 18.0714C18.8852 19.9675 16.8904 21.3558 14.6181 22.0314C13.6081 22.3314 12.5581 22.4814 11.5081 22.4814Z" fill="#00AA91"/>
<path d="M11.4981 14.5014C11.2281 14.5014 10.9781 14.3914 10.7881 14.2114L7.78811 11.2114C7.69553 11.1188 7.62209 11.0089 7.57199 10.8879C7.52188 10.767 7.49609 10.6373 7.49609 10.5064C7.49609 10.3755 7.52188 10.2458 7.57199 10.1248C7.62209 10.0039 7.69553 9.89397 7.78811 9.80138C7.8807 9.7088 7.99061 9.63536 8.11157 9.58526C8.23253 9.53515 8.36218 9.50937 8.49311 9.50937C8.62404 9.50937 8.75369 9.53515 8.87466 9.58526C8.99562 9.63536 9.10553 9.7088 9.19811 9.80138L11.4881 12.0914L20.7881 2.78139C20.8807 2.6888 20.9906 2.61536 21.1116 2.56526C21.2325 2.51515 21.3622 2.48936 21.4931 2.48936C21.624 2.48936 21.7537 2.51515 21.8747 2.56526C21.9956 2.61536 22.1055 2.6888 22.1981 2.78139C22.2907 2.87397 22.3641 2.98388 22.4142 3.10484C22.4643 3.22581 22.4901 3.35545 22.4901 3.48639C22.4901 3.61732 22.4643 3.74696 22.4142 3.86793C22.3641 3.98889 22.2907 4.0988 22.1981 4.19139L12.2081 14.2014C12.115 14.2945 12.0043 14.3681 11.8823 14.4179C11.7604 14.4677 11.6298 14.4927 11.4981 14.4914V14.5014Z" fill="#00AA91"/>
</svg>
